# xmcd CD database file
#
# Track frame offsets:
#	150
#	15069
#	32499
#	51225
#	73218
#	94617
#	108078
#	132150
#	157653
#	172275
#	186789
#	203490
#	227427
#	254901
#	275949
#	289680
#	305571
#	320760
#
# Disc length: 4431 seconds
#
# Revision: 1
# Processed by: cddbd v1.5.2PL0 Copyright (c) Steve Scherf et al.
# Submitted via: CDex 1.51
#
DISCID=fb114d12
DTITLE=Billy Joel - The Ultimate Collection
DYEAR=1900
DGENRE=Blues
TTITLE0=Uptown Girl
TTITLE1=Tell Her About It
TTITLE2=The River Of Dreams
TTITLE3=Just The Way You Are
TTITLE4=My Life
TTITLE5=It's Still Rock And Roll To Me
TTITLE6=An Innocent Man
TTITLE7=Piano Man
TTITLE8=You're My Home
TTITLE9=Everybody Loves You Now
TTITLE10=The Entertainer
TTITLE11=Streetlife Serenade
TTITLE12=New York State Of Mind
TTITLE13=Say Goodbye To Hollywood
TTITLE14=She's Got Away
TTITLE15=Movin' Out (Anthony's Song)
TTITLE16=She's Always A Woman
TTITLE17=Honesty
EXTD=
EXTT0=
EXTT1=
EXTT2=
EXTT3=
EXTT4=
EXTT5=
EXTT6=
EXTT7=
EXTT8=
EXTT9=
EXTT10=
EXTT11=
EXTT12=
EXTT13=
EXTT14=
EXTT15=
EXTT16=
EXTT17=
PLAYORDER=
